<svg xmlns="http://www.w3.org/2000/svg" viewBox="0 0 37.655 60.464"><title>point</title><path d="M37.655,18.79a18.791,18.791,0,0,0-37.581,0c0,.031,0,.062,0,.093H0s-.6,17.191,18.79,36.581c14-14,17.579-26.851,18.487-32.916A18.91,18.91,0,0,0,37.655,18.79Z" style="fill:#fff"/><path d="M18.88,15.213h-.03l-1.317,4.066a.218.218,0,0,0,.207.285h2.207a.219.219,0,0,0,.208-.284Z" style="fill:#ed0000"/><path d="M25.993,52a1,1,0,1,0-.93,1.77c1,.523,1.589,1.157,1.589,1.7,0,1.224-3.116,3-8,3s-8-1.776-8-3c0-.477.462-1.029,1.266-1.514a1,1,0,1,0-1.031-1.713c-1.848,1.113-2.235,2.369-2.235,3.227,0,2.851,4.3,5,10,5s10-2.149,10-5C28.652,54.13,27.707,52.9,25.993,52Z" style="fill:#ed0000"/><path d="M26.718,4.689A17.784,17.784,0,0,1,25,5.843a2.223,2.223,0,0,1-1.82.2c-.122-.039-.257-.082-.407-.127-.3-.088-.988-.25-1.427-.351a.111.111,0,0,1-.011-.213,16.446,16.446,0,0,0,3.39-1.6,16.189,16.189,0,0,0-11.617-.038,17.148,17.148,0,0,0,5.966,2.356,17.9,17.9,0,0,1,8.773,4.16,11.534,11.534,0,0,1-.009,17.143,18.217,18.217,0,0,1-2.812,2.038,2.117,2.117,0,0,1-1.767.182l-.125-.041c-.351-.105-1.209-.3-1.691-.408a.1.1,0,0,1-.011-.19c5.269-1.85,8.332-5.51,8.332-10.137,0-6.446-5.708-9.851-11.051-10.888A18.636,18.636,0,0,1,11.1,4.638a16.143,16.143,0,0,0-.024,28.291,17.8,17.8,0,0,1,1.8-1.2,2.026,2.026,0,0,1,1.657-.167q.207.069.477.15c.288.087.961.244,1.4.345a.119.119,0,0,1,.013.228,16.383,16.383,0,0,0-3.339,1.576,16.188,16.188,0,0,0,11.523.012,17.148,17.148,0,0,0-5.9-2.313A17.886,17.886,0,0,1,9.939,27.4a11.535,11.535,0,0,1,.008-17.143,18.627,18.627,0,0,1,3.077-2.192,1.509,1.509,0,0,1,1.268-.11c.143.052.277.1.36.123.326.1,1.092.274,1.586.385a.13.13,0,0,1,.014.249c-5.207,1.862-8.231,5.505-8.231,10.1,0,6.447,5.709,9.851,11.051,10.888a18.675,18.675,0,0,1,7.549,3.244,16.144,16.144,0,0,0,.1-28.257ZM20.5,21.463H17.2a.525.525,0,0,0-.5.358l-.646,1.91h-2.42L17.48,13.005a.414.414,0,0,1,.389-.274h2.037a.413.413,0,0,1,.389.276l3.794,10.724h-2.5l-.59-1.9A.526.526,0,0,0,20.5,21.463Z" style="fill:#ed0000"/></svg>